<mxfile host="Electron" modified="2024-03-31T02:39:36.139Z" agent="Mozilla/5.0 (X11; Linux x86_64) AppleWebKit/537.36 (KHTML, like Gecko) draw.io/24.1.0 Chrome/120.0.6099.109 Electron/28.1.0 Safari/537.36" etag="uu0y8fnJpQ4q45z3hF74" version="24.1.0" type="device">
  <diagram name="Page-1" id="iR1KHutCOTCBPxaWZv5G">
    <mxGraphModel dx="2716" dy="1644" grid="1" gridSize="10" guides="1" tooltips="1" connect="1" arrows="1" fold="1" page="1" pageScale="1" pageWidth="827" pageHeight="1169" math="0" shadow="0">
      <root>
        <mxCell id="0" />
        <mxCell id="1" parent="0" />
        <mxCell id="nFuDnUwbCqEBXc2KSdf8-1" value="Account" style="ellipse;whiteSpace=wrap;html=1;aspect=fixed;" vertex="1" parent="1">
          <mxGeometry x="401" y="405" width="200" height="200" as="geometry" />
        </mxCell>
        <mxCell id="nFuDnUwbCqEBXc2KSdf8-12" value="Child" style="edgeStyle=orthogonalEdgeStyle;rounded=0;orthogonalLoop=1;jettySize=auto;html=1;exitX=0.5;exitY=0;exitDx=0;exitDy=0;entryX=0;entryY=0.5;entryDx=0;entryDy=0;" edge="1" parent="1" source="nFuDnUwbCqEBXc2KSdf8-1" target="nFuDnUwbCqEBXc2KSdf8-1">
          <mxGeometry relative="1" as="geometry">
            <Array as="points">
              <mxPoint x="501" y="385" />
              <mxPoint x="381" y="385" />
              <mxPoint x="381" y="505" />
            </Array>
          </mxGeometry>
        </mxCell>
        <mxCell id="nFuDnUwbCqEBXc2KSdf8-13" value="Parent" style="edgeStyle=orthogonalEdgeStyle;rounded=0;orthogonalLoop=1;jettySize=auto;html=1;entryX=0.5;entryY=1;entryDx=0;entryDy=0;" edge="1" parent="1" source="nFuDnUwbCqEBXc2KSdf8-1" target="nFuDnUwbCqEBXc2KSdf8-1">
          <mxGeometry relative="1" as="geometry">
            <Array as="points">
              <mxPoint x="621" y="505" />
              <mxPoint x="621" y="625" />
              <mxPoint x="501" y="625" />
            </Array>
          </mxGeometry>
        </mxCell>
        <mxCell id="nFuDnUwbCqEBXc2KSdf8-15" value="Transaction" style="ellipse;whiteSpace=wrap;html=1;aspect=fixed;" vertex="1" parent="1">
          <mxGeometry x="207" y="585" width="200" height="200" as="geometry" />
        </mxCell>
        <mxCell id="nFuDnUwbCqEBXc2KSdf8-18" value="To" style="edgeStyle=orthogonalEdgeStyle;rounded=0;orthogonalLoop=1;jettySize=auto;html=1;exitX=0.5;exitY=0;exitDx=0;exitDy=0;entryX=0.005;entryY=0.606;entryDx=0;entryDy=0;entryPerimeter=0;" edge="1" parent="1" source="nFuDnUwbCqEBXc2KSdf8-15" target="nFuDnUwbCqEBXc2KSdf8-1">
          <mxGeometry relative="1" as="geometry" />
        </mxCell>
        <mxCell id="nFuDnUwbCqEBXc2KSdf8-19" value="From" style="edgeStyle=orthogonalEdgeStyle;rounded=0;orthogonalLoop=1;jettySize=auto;html=1;exitX=0.291;exitY=0.96;exitDx=0;exitDy=0;exitPerimeter=0;entryX=1;entryY=0.5;entryDx=0;entryDy=0;" edge="1" parent="1" source="nFuDnUwbCqEBXc2KSdf8-1" target="nFuDnUwbCqEBXc2KSdf8-15">
          <mxGeometry relative="1" as="geometry">
            <Array as="points">
              <mxPoint x="459" y="685" />
            </Array>
          </mxGeometry>
        </mxCell>
      </root>
    </mxGraphModel>
  </diagram>
</mxfile>
